<svg xmlns="http://www.w3.org/2000/svg" width="1280" height="640" viewBox="0 0 1280 640" role="img" aria-labelledby="title description">
  <title id="title">Skill Steward</title>
  <desc id="description">Cross-Harness operations for Agent Skills: task preflight, missing-Skill discovery, local evidence, and reversible governance.</desc>
  <defs>
    <linearGradient id="background" x1="0" y1="0" x2="1" y2="1">
      <stop offset="0" stop-color="#080b12" />
      <stop offset="0.58" stop-color="#101625" />
      <stop offset="1" stop-color="#17122a" />
    </linearGradient>
    <linearGradient id="accent" x1="0" y1="0" x2="1" y2="0">
      <stop offset="0" stop-color="#5eead4" />
      <stop offset="1" stop-color="#a78bfa" />
    </linearGradient>
    <linearGradient id="panel" x1="0" y1="0" x2="0" y2="1">
      <stop offset="0" stop-color="#1b2334" />
      <stop offset="1" stop-color="#111724" />
    </linearGradient>
    <pattern id="grid" width="32" height="32" patternUnits="userSpaceOnUse">
      <path d="M 32 0 L 0 0 0 32" fill="none" stroke="#94a3b8" stroke-opacity="0.05" stroke-width="1" />
    </pattern>
    <filter id="shadow" x="-20%" y="-20%" width="140%" height="140%">
      <feDropShadow dx="0" dy="16" stdDeviation="18" flood-color="#020617" flood-opacity="0.55" />
    </filter>
  </defs>

  <rect width="1280" height="640" rx="32" fill="url(#background)" />
  <rect width="1280" height="640" rx="32" fill="url(#grid)" />
  <circle cx="1130" cy="84" r="210" fill="#8b5cf6" opacity="0.08" />
  <circle cx="950" cy="610" r="260" fill="#14b8a6" opacity="0.07" />

  <g transform="translate(72 70)">
    <rect width="56" height="56" rx="16" fill="#172033" stroke="#5eead4" stroke-opacity="0.5" />
    <path d="M17 20.5 28 14l11 6.5v13L28 40l-11-6.5z" fill="none" stroke="url(#accent)" stroke-width="2.6" stroke-linejoin="round" />
    <path d="m17 20.5 11 6.7 11-6.7M28 27.2V40" fill="none" stroke="url(#accent)" stroke-width="2.6" stroke-linejoin="round" />
    <text x="76" y="40" fill="#f8fafc" font-family="Inter, ui-sans-serif, system-ui, sans-serif" font-size="31" font-weight="700" letter-spacing="-0.5">Skill Steward</text>
  </g>

  <g transform="translate(72 174)" font-family="Inter, ui-sans-serif, system-ui, sans-serif">
    <text x="0" y="0" fill="#f8fafc" font-size="55" font-weight="730" letter-spacing="-1.8">Cross-Harness operations</text>
    <text x="0" y="68" fill="#f8fafc" font-size="55" font-weight="730" letter-spacing="-1.8">for Agent Skills</text>
    <text x="2" y="168" fill="#aeb9ca" font-size="23" font-weight="430">
      One local, proof-aware path from task intent to reviewed change.
    </text>

    <g transform="translate(0 212)" font-size="17" font-weight="590">
      <g>
        <rect width="184" height="44" rx="22" fill="#13272a" stroke="#2dd4bf" stroke-opacity="0.42" />
        <circle cx="23" cy="22" r="5" fill="#5eead4" />
        <text x="38" y="28" fill="#d7fff9">Task preflight</text>
      </g>
      <g transform="translate(198 0)">
        <rect width="236" height="44" rx="22" fill="#1d1b32" stroke="#a78bfa" stroke-opacity="0.42" />
        <circle cx="23" cy="22" r="5" fill="#a78bfa" />
        <text x="38" y="28" fill="#eee8ff">Missing-Skill discovery</text>
      </g>
      <g transform="translate(0 58)">
        <rect width="178" height="44" rx="22" fill="#202319" stroke="#fbbf24" stroke-opacity="0.4" />
        <circle cx="23" cy="22" r="5" fill="#fbbf24" />
        <text x="38" y="28" fill="#fff5cf">Local evidence</text>
      </g>
      <g transform="translate(192 58)">
        <rect width="242" height="44" rx="22" fill="#172436" stroke="#60a5fa" stroke-opacity="0.42" />
        <circle cx="23" cy="22" r="5" fill="#60a5fa" />
        <text x="38" y="28" fill="#e1efff">Reversible governance</text>
      </g>
    </g>
  </g>

  <g transform="translate(778 104)" filter="url(#shadow)" font-family="Inter, ui-sans-serif, system-ui, sans-serif">
    <rect width="424" height="430" rx="24" fill="url(#panel)" stroke="#65728a" stroke-opacity="0.38" />
    <g transform="translate(24 22)">
      <circle cx="7" cy="7" r="5" fill="#fb7185" />
      <circle cx="25" cy="7" r="5" fill="#fbbf24" />
      <circle cx="43" cy="7" r="5" fill="#5eead4" />
      <text x="284" y="13" fill="#8290a6" font-size="12" font-weight="650" letter-spacing="1.2">TASK PREFLIGHT</text>
    </g>

    <g transform="translate(24 66)">
      <rect width="376" height="72" rx="16" fill="#0c121e" stroke="#334155" />
      <text x="18" y="25" fill="#8290a6" font-size="12" font-weight="650" letter-spacing="0.9">CURRENT TASK</text>
      <rect x="18" y="39" width="275" height="8" rx="4" fill="#64748b" opacity="0.55" />
      <rect x="18" y="55" width="206" height="7" rx="3.5" fill="#475569" opacity="0.58" />
    </g>

    <g transform="translate(24 154)">
      <text x="0" y="14" fill="#aeb9ca" font-size="13" font-weight="650">SMALLEST USEFUL SET</text>
      <g transform="translate(0 28)">
        <rect width="376" height="62" rx="14" fill="#112523" stroke="#2dd4bf" stroke-opacity="0.48" />
        <rect x="16" y="15" width="32" height="32" rx="9" fill="#183a36" />
        <path d="m26 31 6 6 11-13" fill="none" stroke="#5eead4" stroke-width="2.4" stroke-linecap="round" stroke-linejoin="round" />
        <text x="62" y="26" fill="#e7faf7" font-size="15" font-weight="680">requesting-code-review</text>
        <text x="62" y="45" fill="#7dd3c7" font-size="12">installed · distinct task value</text>
        <rect x="311" y="20" width="48" height="23" rx="11.5" fill="#17463f" />
        <text x="325" y="36" fill="#7ff4df" font-size="11" font-weight="700">USE</text>
      </g>
      <g transform="translate(0 100)">
        <rect width="376" height="62" rx="14" fill="#1c1930" stroke="#8b5cf6" stroke-opacity="0.46" />
        <rect x="16" y="15" width="32" height="32" rx="9" fill="#302452" />
        <path d="M32 23v16M24 31h16" fill="none" stroke="#b9a4ff" stroke-width="2.4" stroke-linecap="round" />
        <text x="62" y="26" fill="#f0ecff" font-size="15" font-weight="680">security-review</text>
        <text x="62" y="45" fill="#b5a7e8" font-size="12">not installed · reviewed candidate</text>
        <rect x="294" y="20" width="65" height="23" rx="11.5" fill="#3a2764" />
        <text x="305" y="36" fill="#c9b9ff" font-size="11" font-weight="700">REVIEW</text>
      </g>
    </g>

    <g transform="translate(24 354)">
      <path d="M0 0h376" stroke="#334155" />
      <text x="0" y="35" fill="#8290a6" font-size="12" font-weight="640">LOCAL · DETERMINISTIC · REVIEWED</text>
      <circle cx="350" cy="29" r="10" fill="#163c38" />
      <path d="m345 29 4 4 7-8" fill="none" stroke="#5eead4" stroke-width="2" stroke-linecap="round" stroke-linejoin="round" />
    </g>
  </g>

  <rect x="72" y="582" width="1136" height="1" fill="url(#accent)" opacity="0.4" />
  <text x="72" y="611" fill="#8493aa" font-family="Inter, ui-sans-serif, system-ui, sans-serif" font-size="14" font-weight="580" letter-spacing="0.6">CODEX · CLAUDE CODE · GITHUB COPILOT CLI</text>
</svg>
